<svg viewBox="0 0 1301 196" version="1.1" xmlns="http://www.w3.org/2000/svg" xmlns:xlink="http://www.w3.org/1999/xlink">
    <g stroke="none" stroke-width="1" fill="none" fill-rule="evenodd">
        <g fill="#FFFFFF">
            <g>
                <polygon id="Fill-12" points="92 63 133 63 133 104 92 104"></polygon>
                <polygon id="Fill-14" points="0 63 41 63 41 104 0 104"></polygon>
                <polygon id="Fill-15" points="0 109 41 109 41 150 0 150"></polygon>
                <polygon id="Fill-16" points="0 155 41 155 41 196 0 196"></polygon>
                <polygon id="Fill-3" points="115 6 156 6 156 47 115 47"></polygon>
                <polygon id="Fill-5" points="138 155 179 155 179 196 138 196"></polygon>
                <polygon id="Fill-6" points="138 109 179 109 179 150 138 150"></polygon>
                <polygon id="Fill-7" points="92 155 133 155 133 196 92 196"></polygon>
                <polygon id="Fill-8" points="46 155 87 155 87 196 46 196"></polygon>
                <polygon id="Fill-9" points="0 17 41 17 41 58 0 58"></polygon>
                <polygon id="Fill-11" points="46 17 87 17 87 58 46 58"></polygon>
                <polygon id="Fill-1" points="170 61 204 61 204 95 170 95"></polygon>
                <polygon id="Fill-2" points="188 0 222 0 222 34 188 34"></polygon>
            </g>
            <path d="M317.88,179.66 C327.706667,179.66 336.323333,177.57 343.73,173.39 C351.136667,169.21 357.04,163.233333 361.44,155.46 L361.44,155.46 L361.44,178.56 L381.9,178.56 L381.9,15.32 L361.44,15.32 L361.44,85.28 C357.186667,77.5066667 351.32,71.5666667 343.84,67.46 C336.36,63.3533333 327.633333,61.3 317.66,61.3 C306.806667,61.3 297.163333,63.7933333 288.73,68.78 C280.296667,73.7666667 273.733333,80.6966667 269.04,89.57 C264.346667,98.4433333 262,108.6 262,120.04 C262,131.626667 264.346667,141.93 269.04,150.95 C273.733333,159.97 280.296667,167.01 288.73,172.07 C297.163333,177.13 306.88,179.66 317.88,179.66 Z M322.06,162.06 C314.433333,162.06 307.65,160.3 301.71,156.78 C295.77,153.26 291.113333,148.346667 287.74,142.04 C284.366667,135.733333 282.68,128.62 282.68,120.7 C282.68,112.78 284.366667,105.666667 287.74,99.36 C291.113333,93.0533333 295.77,88.1033333 301.71,84.51 C307.65,80.9166667 314.433333,79.12 322.06,79.12 C329.686667,79.12 336.47,80.88 342.41,84.4 C348.35,87.92 353.006667,92.8333333 356.38,99.14 C359.753333,105.446667 361.44,112.633333 361.44,120.7 C361.44,128.62 359.753333,135.733333 356.38,142.04 C353.006667,148.346667 348.35,153.26 342.41,156.78 C336.47,160.3 329.686667,162.06 322.06,162.06 Z M463.48,179.66 C473.306667,179.66 481.886667,177.606667 489.22,173.5 C496.553333,169.393333 502.42,163.526667 506.82,155.9 L506.82,155.9 L506.82,178.56 L527.28,178.56 L527.28,62.18 L506.82,62.18 L506.82,84.84 C502.42,77.2133333 496.553333,71.3833333 489.22,67.35 C481.886667,63.3166667 473.306667,61.3 463.48,61.3 C452.626667,61.3 442.946667,63.7933333 434.44,68.78 C425.933333,73.7666667 419.333333,80.6966667 414.64,89.57 C409.946667,98.4433333 407.6,108.6 407.6,120.04 C407.6,131.626667 409.946667,141.93 414.64,150.95 C419.333333,159.97 425.896667,167.01 434.33,172.07 C442.763333,177.13 452.48,179.66 463.48,179.66 Z M467.66,162.06 C460.033333,162.06 453.25,160.3 447.31,156.78 C441.37,153.26 436.713333,148.346667 433.34,142.04 C429.966667,135.733333 428.28,128.62 428.28,120.7 C428.28,112.78 429.966667,105.666667 433.34,99.36 C436.713333,93.0533333 441.37,88.1033333 447.31,84.51 C453.25,80.9166667 460.033333,79.12 467.66,79.12 C478.513333,79.12 487.496667,82.5666667 494.61,89.46 C501.723333,96.3533333 505.793333,105.3 506.82,116.3 L506.82,116.3 L506.82,125.1 C505.793333,136.1 501.723333,145.01 494.61,151.83 C487.496667,158.65 478.513333,162.06 467.66,162.06 Z M591.48,179.44 C600.426667,179.44 609.373333,176.58 618.32,170.86 L618.32,170.86 L612.82,155.02 C606.366667,158.686667 600.426667,160.52 595,160.52 C585.32,160.52 580.48,153.04 580.48,138.08 L580.48,138.08 L580.48,81.76 L616.34,81.76 L616.34,66.14 L580.48,66.14 L580.48,34.9 L560.02,34.9 L560.02,141.82 C560.02,153.993333 562.916667,163.306667 568.71,169.76 C574.503333,176.213333 582.093333,179.44 591.48,179.44 Z M682.08,179.66 C691.906667,179.66 700.486667,177.606667 707.82,173.5 C715.153333,169.393333 721.02,163.526667 725.42,155.9 L725.42,155.9 L725.42,178.56 L745.88,178.56 L745.88,62.18 L725.42,62.18 L725.42,84.84 C721.02,77.2133333 715.153333,71.3833333 707.82,67.35 C700.486667,63.3166667 691.906667,61.3 682.08,61.3 C671.226667,61.3 661.546667,63.7933333 653.04,68.78 C644.533333,73.7666667 637.933333,80.6966667 633.24,89.57 C628.546667,98.4433333 626.2,108.6 626.2,120.04 C626.2,131.626667 628.546667,141.93 633.24,150.95 C637.933333,159.97 644.496667,167.01 652.93,172.07 C661.363333,177.13 671.08,179.66 682.08,179.66 Z M686.26,162.06 C678.633333,162.06 671.85,160.3 665.91,156.78 C659.97,153.26 655.313333,148.346667 651.94,142.04 C648.566667,135.733333 646.88,128.62 646.88,120.7 C646.88,112.78 648.566667,105.666667 651.94,99.36 C655.313333,93.0533333 659.97,88.1033333 665.91,84.51 C671.85,80.9166667 678.633333,79.12 686.26,79.12 C697.113333,79.12 706.096667,82.5666667 713.21,89.46 C720.323333,96.3533333 724.393333,105.3 725.42,116.3 L725.42,116.3 L725.42,125.1 C724.393333,136.1 720.323333,145.01 713.21,151.83 C706.096667,158.65 697.113333,162.06 686.26,162.06 Z M799.74,178.56 L799.74,81.76 L831.64,81.76 L831.64,66.14 L799.74,66.14 L799.74,50.96 C799.74,44.9466667 801.5,40.3266667 805.02,37.1 C808.54,33.8733333 812.94,32.26 818.22,32.26 C822.62,32.26 827.606667,33.5066667 833.18,36 L833.18,36 L837.8,19.28 C831.053333,15.76 824.38,14 817.78,14 C811.033333,14 804.726667,15.5033333 798.86,18.51 C792.993333,21.5166667 788.263333,25.99 784.67,31.93 C781.076667,37.87 779.28,45.0933333 779.28,53.6 L779.28,53.6 L779.28,178.56 L799.74,178.56 Z M894.52,179.22 C914.906667,179.22 931.406667,171.373333 944.02,155.68 L944.02,155.68 L931.7,144.68 C921.873333,156.56 909.92,162.5 895.84,162.5 C887.186667,162.5 879.596667,160.3 873.07,155.9 C866.543333,151.5 861.813333,145.486667 858.88,137.86 L858.88,137.86 L946.66,109.26 C945.193333,94.5933333 939.73,82.97 930.27,74.39 C920.81,65.81 908.673333,61.52 893.86,61.52 C882.126667,61.52 871.786667,64.0133333 862.84,69 C853.893333,73.9866667 847,80.9533333 842.16,89.9 C837.32,98.8466667 834.9,108.966667 834.9,120.26 C834.9,131.846667 837.43,142.076667 842.49,150.95 C847.55,159.823333 854.59,166.753333 863.61,171.74 C872.63,176.726667 882.933333,179.22 894.52,179.22 Z M855.58,122.24 L855.58,119.38 C855.58,106.62 859.026667,96.61 865.92,89.35 C872.813333,82.09 882.126667,78.46 893.86,78.46 C909.993333,78.46 920.846667,85.3533333 926.42,99.14 L926.42,99.14 L855.58,122.24 Z M1017.68,179.22 C1038.06667,179.22 1054.56667,171.373333 1067.18,155.68 L1067.18,155.68 L1054.86,144.68 C1045.03333,156.56 1033.08,162.5 1019,162.5 C1010.34667,162.5 1002.75667,160.3 996.23,155.9 C989.703333,151.5 984.973333,145.486667 982.04,137.86 L982.04,137.86 L1069.82,109.26 C1068.35333,94.5933333 1062.89,82.97 1053.43,74.39 C1043.97,65.81 1031.83333,61.52 1017.02,61.52 C1005.28667,61.52 994.946667,64.0133333 986,69 C977.053333,73.9866667 970.16,80.9533333 965.32,89.9 C960.48,98.8466667 958.06,108.966667 958.06,120.26 C958.06,131.846667 960.59,142.076667 965.65,150.95 C970.71,159.823333 977.75,166.753333 986.77,171.74 C995.79,176.726667 1006.09333,179.22 1017.68,179.22 Z M978.74,122.24 L978.74,119.38 C978.74,106.62 982.186667,96.61 989.08,89.35 C995.973333,82.09 1005.28667,78.46 1017.02,78.46 C1033.15333,78.46 1044.00667,85.3533333 1049.58,99.14 L1049.58,99.14 L978.74,122.24 Z M1137.1,179.66 C1146.92667,179.66 1155.54333,177.57 1162.95,173.39 C1170.35667,169.21 1176.26,163.233333 1180.66,155.46 L1180.66,155.46 L1180.66,178.56 L1201.12,178.56 L1201.12,15.32 L1180.66,15.32 L1180.66,85.28 C1176.40667,77.5066667 1170.54,71.5666667 1163.06,67.46 C1155.58,63.3533333 1146.85333,61.3 1136.88,61.3 C1126.02667,61.3 1116.38333,63.7933333 1107.95,68.78 C1099.51667,73.7666667 1092.95333,80.6966667 1088.26,89.57 C1083.56667,98.4433333 1081.22,108.6 1081.22,120.04 C1081.22,131.626667 1083.56667,141.93 1088.26,150.95 C1092.95333,159.97 1099.51667,167.01 1107.95,172.07 C1116.38333,177.13 1126.1,179.66 1137.1,179.66 Z M1141.28,162.06 C1133.65333,162.06 1126.87,160.3 1120.93,156.78 C1114.99,153.26 1110.33333,148.346667 1106.96,142.04 C1103.58667,135.733333 1101.9,128.62 1101.9,120.7 C1101.9,112.78 1103.58667,105.666667 1106.96,99.36 C1110.33333,93.0533333 1114.99,88.1033333 1120.93,84.51 C1126.87,80.9166667 1133.65333,79.12 1141.28,79.12 C1148.90667,79.12 1155.69,80.88 1161.63,84.4 C1167.57,87.92 1172.22667,92.8333333 1175.6,99.14 C1178.97333,105.446667 1180.66,112.633333 1180.66,120.7 C1180.66,128.62 1178.97333,135.733333 1175.6,142.04 C1172.22667,148.346667 1167.57,153.26 1161.63,156.78 C1155.69,160.3 1148.90667,162.06 1141.28,162.06 Z M1258.72,180.56 L1258.72,119.18 C1259.74667,108.033333 1263.92667,99.16 1271.26,92.56 C1278.59333,85.96 1288.2,82.88 1300.08,83.32 L1300.08,83.32 L1300.08,63.52 C1290.4,63.6666667 1282.04,65.9033333 1275,70.23 C1267.96,74.5566667 1262.53333,80.9 1258.72,89.26 L1258.72,89.26 L1258.72,64.18 L1238.26,64.18 L1238.26,180.56 L1258.72,180.56 Z" id="text-dark-magenta" fill-rule="nonzero"></path>
        </g>
    </g>
</svg>